# xmcd CD database file
#
# Track frame offsets:
#	150
#	10080
#	19732
#	33437
#	43665
#	52087
#	62087
#	71895
#	81185
#	95632
#	106700
#	117547
#	126957
#	155157
#	163805
#	172320
#	184907
#	197050
#	203322
#	211985
#	221225
#	231145
#	240495
#	250290
#	259067
#
# Disc length: 3553 seconds
#
# Revision: 0
# Processed by: cddbd v1.5PL3 Copyright (c) Steve Scherf et al.
# Submitted via: CDex 1.50
#
DISCID=740ddf19
DTITLE=Jimmy Bryant - Frettin' Fingers
DYEAR=2003
DGENRE=Country
TTITLE0=Statosphere Boogie
TTITLE1=Flippin' The Lid
TTITLE2=Deep Water
TTITLE3=Shuffleboard Rag
TTITLE4=Caffeine Patrol
TTITLE5=Pickin' Peppers
TTITLE6=Chatterbox
TTITLE7=Frettin' Fingers
TTITLE8=Pushin' The Blues
TTITLE9=Rolling Sky
TTITLE10=The Night Rider
TTITLE11=Hillcrest (Opus 3)
TTITLE12=China Boy
TTITLE13=Ha-So
TTITLE14=Tobacco Worm
TTITLE15=Strings
TTITLE16=Long Walk Home
TTITLE17=Frettin' Fingers
TTITLE18=Whistle Stop
TTITLE19=Peach Grove Express
TTITLE20=Rattle Dance
TTITLE21=Scottish Eagle
TTITLE22=Julie's Gone
TTITLE23=Buggy Ride
TTITLE24=Blow Your Hat In The Creek
EXTD=YEAR: 2003
EXTT0=
EXTT1=
EXTT2=
EXTT3=
EXTT4=
EXTT5=
EXTT6=
EXTT7=
EXTT8=
EXTT9=
EXTT10=
EXTT11=
EXTT12=
EXTT13=
EXTT14=
EXTT15=
EXTT16=
EXTT17=
EXTT18=
EXTT19=
EXTT20=
EXTT21=
EXTT22=
EXTT23=
EXTT24=
PLAYORDER=
